<mxfile host="app.diagrams.net" modified="2023-05-29T10:25:32.001Z" agent="Mozilla/5.0 (Windows NT 10.0; Win64; x64) AppleWebKit/537.36 (KHTML, like Gecko) Chrome/113.0.0.0 Safari/537.36" etag="ggKANY2XitN3vJY3dP8j" version="21.3.5" type="github">
  <diagram name="Page-1" id="crJIPXyi9AX1NItAysIx">
    <mxGraphModel dx="980" dy="779" grid="1" gridSize="10" guides="1" tooltips="1" connect="1" arrows="1" fold="1" page="1" pageScale="1" pageWidth="1169" pageHeight="827" math="0" shadow="0">
      <root>
        <mxCell id="0" />
        <mxCell id="1" parent="0" />
        <mxCell id="ZFagqAt0bgXSlk79krps-3" value="" style="edgeStyle=orthogonalEdgeStyle;rounded=0;orthogonalLoop=1;jettySize=auto;html=1;" edge="1" parent="1" source="ZFagqAt0bgXSlk79krps-1" target="ZFagqAt0bgXSlk79krps-2">
          <mxGeometry relative="1" as="geometry" />
        </mxCell>
        <mxCell id="ZFagqAt0bgXSlk79krps-1" value="start" style="ellipse;whiteSpace=wrap;html=1;strokeColor=#FF1212;" vertex="1" parent="1">
          <mxGeometry x="210" y="80" width="120" height="80" as="geometry" />
        </mxCell>
        <mxCell id="ZFagqAt0bgXSlk79krps-6" value="" style="edgeStyle=orthogonalEdgeStyle;rounded=0;orthogonalLoop=1;jettySize=auto;html=1;" edge="1" parent="1" source="ZFagqAt0bgXSlk79krps-2" target="ZFagqAt0bgXSlk79krps-5">
          <mxGeometry relative="1" as="geometry" />
        </mxCell>
        <mxCell id="ZFagqAt0bgXSlk79krps-2" value="first_number&lt;br&gt;second_number" style="shape=parallelogram;perimeter=parallelogramPerimeter;whiteSpace=wrap;html=1;fixedSize=1;" vertex="1" parent="1">
          <mxGeometry x="210" y="220" width="120" height="60" as="geometry" />
        </mxCell>
        <mxCell id="ZFagqAt0bgXSlk79krps-8" value="yes" style="edgeStyle=orthogonalEdgeStyle;rounded=0;orthogonalLoop=1;jettySize=auto;html=1;" edge="1" parent="1" source="ZFagqAt0bgXSlk79krps-5" target="ZFagqAt0bgXSlk79krps-7">
          <mxGeometry relative="1" as="geometry" />
        </mxCell>
        <mxCell id="ZFagqAt0bgXSlk79krps-10" value="no" style="edgeStyle=orthogonalEdgeStyle;rounded=0;orthogonalLoop=1;jettySize=auto;html=1;" edge="1" parent="1" source="ZFagqAt0bgXSlk79krps-5" target="ZFagqAt0bgXSlk79krps-9">
          <mxGeometry x="-0.1111" relative="1" as="geometry">
            <mxPoint as="offset" />
          </mxGeometry>
        </mxCell>
        <mxCell id="ZFagqAt0bgXSlk79krps-5" value="&lt;font style=&quot;font-size: 9px;&quot;&gt;first number &amp;gt; second_number?&lt;/font&gt;" style="rhombus;whiteSpace=wrap;html=1;" vertex="1" parent="1">
          <mxGeometry x="230" y="350" width="80" height="80" as="geometry" />
        </mxCell>
        <mxCell id="ZFagqAt0bgXSlk79krps-7" value="max number is {{first number}}" style="shape=document;whiteSpace=wrap;html=1;boundedLbl=1;" vertex="1" parent="1">
          <mxGeometry x="210" y="510" width="120" height="80" as="geometry" />
        </mxCell>
        <mxCell id="ZFagqAt0bgXSlk79krps-9" value="max number is {{second_number}}" style="shape=document;whiteSpace=wrap;html=1;boundedLbl=1;" vertex="1" parent="1">
          <mxGeometry x="400" y="350" width="120" height="80" as="geometry" />
        </mxCell>
        <mxCell id="ZFagqAt0bgXSlk79krps-11" value="finish" style="ellipse;whiteSpace=wrap;html=1;fillColor=#dae8fc;strokeColor=#6c8ebf;" vertex="1" parent="1">
          <mxGeometry x="400" y="640" width="120" height="80" as="geometry" />
        </mxCell>
        <mxCell id="ZFagqAt0bgXSlk79krps-12" value="" style="endArrow=classic;html=1;rounded=1;exitX=0.504;exitY=0.851;exitDx=0;exitDy=0;exitPerimeter=0;entryX=0;entryY=0.5;entryDx=0;entryDy=0;" edge="1" parent="1" source="ZFagqAt0bgXSlk79krps-7" target="ZFagqAt0bgXSlk79krps-11">
          <mxGeometry width="50" height="50" relative="1" as="geometry">
            <mxPoint x="250" y="400" as="sourcePoint" />
            <mxPoint x="300" y="350" as="targetPoint" />
            <Array as="points">
              <mxPoint x="270" y="680" />
            </Array>
          </mxGeometry>
        </mxCell>
        <mxCell id="ZFagqAt0bgXSlk79krps-13" value="" style="endArrow=classic;html=1;rounded=0;exitX=0.5;exitY=0.837;exitDx=0;exitDy=0;exitPerimeter=0;entryX=0.5;entryY=0;entryDx=0;entryDy=0;" edge="1" parent="1" source="ZFagqAt0bgXSlk79krps-9" target="ZFagqAt0bgXSlk79krps-11">
          <mxGeometry width="50" height="50" relative="1" as="geometry">
            <mxPoint x="250" y="400" as="sourcePoint" />
            <mxPoint x="300" y="350" as="targetPoint" />
          </mxGeometry>
        </mxCell>
      </root>
    </mxGraphModel>
  </diagram>
</mxfile>
